{"asset":{"version":"2.0","generator":"Blockbench 4.11.0 glTF exporter"},"scenes":[{"nodes":[8],"name":"blockbench_export"}],"scene":0,"nodes":[{"name":"bone2"},{"translation":[0,0.078125,0],"name":"cuboid","mesh":0},{"translation":[0.046875,-0.15625,0],"name":"cuboid","mesh":1},{"translation":[0,-0.328125,-0.03125],"name":"cuboid","mesh":2},{"translation":[-0.09375,0.359375,0.03125],"name":"arm_left","children":[3]},{"translation":[-0.046875,-0.15625,0],"name":"cuboid","mesh":3},{"translation":[0.09375,0.03125,0],"name":"cuboid","mesh":4},{"name":"bone","children":[0,1,2,4,5,6]},{"children":[7]}],"bufferViews":[{"buffer":0,"byteOffset":0,"byteLength":288,"target":34962,"byteStride":12},{"buffer":0,"byteOffset":288,"byteLength":288,"target":34962,"byteStride":12},{"buffer":0,"byteOffset":576,"byteLength":192,"target":34962,"byteStride":8},{"buffer":0,"byteOffset":768,"byteLength":72,"target":34963},{"buffer":0,"byteOffset":840,"byteLength":288,"target":34962,"byteStride":12},{"buffer":0,"byteOffset":1128,"byteLength":288,"target":34962,"byteStride":12},{"buffer":0,"byteOffset":1416,"byteLength":192,"target":34962,"byteStride":8},{"buffer":0,"byteOffset":1608,"byteLength":72,"target":34963},{"buffer":0,"byteOffset":1680,"byteLength":288,"target":34962,"byteStride":12},{"buffer":0,"byteOffset":1968,"byteLength":288,"target":34962,"byteStride":12},{"buffer":0,"byteOffset":2256,"byteLength":192,"target":34962,"byteStride":8},{"buffer":0,"byteOffset":2448,"byteLength":60,"target":34963},{"buffer":0,"byteOffset":2508,"byteLength":12,"target":34963},{"buffer":0,"byteOffset":2520,"byteLength":288,"target":34962,"byteStride":12},{"buffer":0,"byteOffset":2808,"byteLength":288,"target":34962,"byteStride":12},{"buffer":0,"byteOffset":3096,"byteLength":192,"target":34962,"byteStride":8},{"buffer":0,"byteOffset":3288,"byteLength":72,"target":34963},{"buffer":0,"byteOffset":3360,"byteLength":288,"target":34962,"byteStride":12},{"buffer":0,"byteOffset":3648,"byteLength":288,"target":34962,"byteStride":12},{"buffer":0,"byteOffset":3936,"byteLength":192,"target":34962,"byteStride":8},{"buffer":0,"byteOffset":4128,"byteLength":60,"target":34963},{"buffer":0,"byteOffset":4188,"byteLength":12,"target":34963},{"buffer":0,"byteOffset":4200,"byteLength":8},{"buffer":0,"byteOffset":4208,"byteLength":32}],"buffers":[{"byteLength":4240,"uri":"data:application/octet-stream;base64,"}],"accessors":[{"bufferView":0,"componentType":5126,"count":24,"max":[0.078125,0.390625,0.046875],"min":[-0.078125,0.109375,-0.046875],"type":"VEC3"},{"bufferView":1,"componentType":5126,"count":24,"max":[1,1,1],"min":[-1,-1,-1],"type":"VEC3"},{"bufferView":2,"componentType":5126,"count":24,"max":[0.3125,0.53125],"min":[0,0],"type":"VEC2"},{"bufferView":3,"componentType":5123,"count":36,"max":[23],"min":[0],"type":"SCALAR"},{"bufferView":4,"componentType":5126,"count":24,"max":[0.03125,0.34375,0.046875],"min":[-0.03125,0.15625,-0.046875],"type":"VEC3"},{"bufferView":5,"componentType":5126,"count":24,"max":[1,1,1],"min":[-1,-1,-1],"type":"VEC3"},{"bufferView":6,"componentType":5126,"count":24,"max":[0.875,0.875],"min":[0,0],"type":"VEC2"},{"bufferView":7,"componentType":5123,"count":36,"max":[23],"min":[0],"type":"SCALAR"},{"bufferView":8,"componentType":5126,"count":24,"max":[0.015625,0.34375,0.046875],"min":[-0.015625,0.15625,-0.046875],"type":"VEC3"},{"bufferView":9,"componentType":5126,"count":24,"max":[1,1,1],"min":[-1,-1,-1],"type":"VEC3"},{"bufferView":10,"componentType":5126,"count":24,"max":[0.875,0.875],"min":[0,0],"type":"VEC2"},{"bufferView":11,"componentType":5123,"count":30,"max":[19],"min":[0],"type":"SCALAR"},{"bufferView":12,"componentType":5123,"count":6,"max":[23],"min":[20],"type":"SCALAR"},{"bufferView":13,"componentType":5126,"count":24,"max":[0.03125,0.34375,0.046875],"min":[-0.03125,0.15625,-0.046875],"type":"VEC3"},{"bufferView":14,"componentType":5126,"count":24,"max":[1,1,1],"min":[-1,-1,-1],"type":"VEC3"},{"bufferView":15,"componentType":5126,"count":24,"max":[0.875,0.875],"min":[0,0],"type":"VEC2"},{"bufferView":16,"componentType":5123,"count":36,"max":[23],"min":[0],"type":"SCALAR"},{"bufferView":17,"componentType":5126,"count":24,"max":[0.015625,0.34375,0.046875],"min":[-0.015625,0.15625,-0.046875],"type":"VEC3"},{"bufferView":18,"componentType":5126,"count":24,"max":[1,1,1],"min":[-1,-1,-1],"type":"VEC3"},{"bufferView":19,"componentType":5126,"count":24,"max":[0.875,0.875],"min":[0,0],"type":"VEC2"},{"bufferView":20,"componentType":5123,"count":30,"max":[19],"min":[0],"type":"SCALAR"},{"bufferView":21,"componentType":5123,"count":6,"max":[23],"min":[20],"type":"SCALAR"},{"bufferView":22,"componentType":5126,"count":2,"max":[0.4166666567325592],"min":[0],"type":"SCALAR"},{"bufferView":23,"componentType":5126,"count":2,"max":[0.6087614297866821,0,0,1],"min":[0,0,0,0.7933533191680908],"type":"VEC4"}],"materials":[{"pbrMetallicRoughness":{"metallicFactor":0,"roughnessFactor":1,"baseColorTexture":{"index":0}},"alphaMode":"MASK","alphaCutoff":0.05,"doubleSided":true},{"pbrMetallicRoughness":{"metallicFactor":0,"roughnessFactor":1,"baseColorTexture":{"index":1}},"alphaMode":"MASK","alphaCutoff":0.05,"doubleSided":true},{"pbrMetallicRoughness":{"metallicFactor":0,"roughnessFactor":1,"baseColorTexture":{"index":2}},"alphaMode":"MASK","alphaCutoff":0.05,"doubleSided":true},{"pbrMetallicRoughness":{"metallicFactor":0,"roughnessFactor":1,"baseColorTexture":{"index":3}},"alphaMode":"MASK","alphaCutoff":0.05,"doubleSided":true}],"textures":[{"sampler":0,"source":0,"name":"texture"},{"sampler":1,"source":1,"name":"right_left"},{"sampler":2,"source":2,"name":"texture"},{"sampler":3,"source":3,"name":"texture"}],"samplers":[{"magFilter":9728,"minFilter":9728,"wrapS":33071,"wrapT":33071},{"magFilter":9728,"minFilter":9728,"wrapS":33071,"wrapT":33071},{"magFilter":9728,"minFilter":9728,"wrapS":33071,"wrapT":33071},{"magFilter":9728,"minFilter":9728,"wrapS":33071,"wrapT":33071}],"images":[{"mimeType":"image/png","uri":"data:image/png;base64,"},{"mimeType":"image/png","uri":"data:image/png;base64,"},{"mimeType":"image/png","uri":"data:image/png;base64,"},{"mimeType":"image/png","uri":"data:image/png;base64,"}],"meshes":[{"primitives":[{"mode":4,"attributes":{"POSITION":0,"NORMAL":1,"TEXCOORD_0":2},"indices":3,"material":0}]},{"primitives":[{"mode":4,"attributes":{"POSITION":4,"NORMAL":5,"TEXCOORD_0":6},"indices":7,"material":1}]},{"primitives":[{"mode":4,"attributes":{"POSITION":8,"NORMAL":9,"TEXCOORD_0":10},"indices":11,"material":2},{"mode":4,"attributes":{"POSITION":8,"NORMAL":9,"TEXCOORD_0":10},"indices":12,"material":3}]},{"primitives":[{"mode":4,"attributes":{"POSITION":13,"NORMAL":14,"TEXCOORD_0":15},"indices":16,"material":1}]},{"primitives":[{"mode":4,"attributes":{"POSITION":17,"NORMAL":18,"TEXCOORD_0":19},"indices":20,"material":3},{"mode":4,"attributes":{"POSITION":17,"NORMAL":18,"TEXCOORD_0":19},"indices":21,"material":2}]}],"animations":[{"name":"attack","samplers":[{"input":22,"output":23,"interpolation":"LINEAR"}],"channels":[{"sampler":0,"target":{"node":4,"path":"rotation"}}]}]}